<svg id="Capa_1" enable-background="new 0 0 512 512" height="512" viewBox="0 0 512 512" width="512" xmlns="http://www.w3.org/2000/svg"><g><g><path d="m30.222 212.005-28.328 69.929c-5.348 13.202 1.019 28.239 14.22 33.587l14.108 5.715z" fill="#e7a561"/><path d="m284.3 110.765-159.126-64.462c-13.202-5.348-28.239 1.019-33.587 14.22l-20.353 50.242z" fill="#e7a561"/><path d="m78.761 92.185-7.527 18.58h213.066l-45.867-18.58z" fill="#e49542"/><path d="m227.7 401.235 159.126 64.462c13.202 5.348 28.239-1.019 33.587-14.22l20.353-50.242z" fill="#e7a561"/><path d="m433.239 419.815 7.527-18.58h-213.066l45.867 18.58z" fill="#e49542"/><path d="m495.886 196.479-14.108-5.715v109.231l28.328-69.929c5.348-13.202-1.019-28.239-14.22-33.587z" fill="#e7a561"/></g><path d="m455.987 401.235h-399.974c-14.244 0-25.791-11.547-25.791-25.791v-238.888c0-14.244 11.547-25.791 25.791-25.791h399.975c14.244 0 25.791 11.547 25.791 25.791v238.888c-.001 14.244-11.548 25.791-25.792 25.791z" fill="#80b4fb"/><path d="m455.987 382.654h-399.974c-14.244 0-25.791-11.547-25.791-25.791v18.581c0 14.244 11.547 25.791 25.791 25.791h399.975c14.244 0 25.791-11.547 25.791-25.791v-18.581c-.001 14.244-11.548 25.791-25.792 25.791z" fill="#61a2f9"/><g><path d="m388.046 354.832v7.426c0 4.276 3.466 7.742 7.742 7.742s7.742-3.466 7.742-7.742v-7.214c5.836-1.238 9.834-3.891 12.395-6.301 5.052-4.755 8.07-11.931 8.07-19.198 0-5.951-1.854-11.338-5.361-15.579-4.701-5.685-12.083-9.12-21.942-10.208-9.191-1.014-10.562-5.751-10.562-8.484 0-1.613.466-9.659 9.658-9.659 5.92 0 8.481 3.53 9.114 4.584 1.161 2.821 3.934 4.809 7.174 4.809 5.834 0 9.198-6.068 6.966-11.178-1.843-4.004-6.918-10.174-15.512-12.627v-7.573c0-4.276-3.466-7.742-7.742-7.742s-7.742 3.466-7.742 7.742v7.552c-5.271 1.514-9.667 4.633-12.753 9.143-4.313 6.303-4.647 13.036-4.647 14.949 0 9.774 6.377 21.891 24.349 23.874 13.516 1.492 13.516 7.961 13.516 10.397 0 2.375-.84 5.704-3.196 7.921-2.243 2.11-5.719 3.04-10.329 2.757-9.769-.595-11.984-6.681-12.205-7.373l-.003.001c-.839-3.379-3.883-5.886-7.521-5.886-5.324 0-9.124 5.469-7.263 10.463.789 2.48 5.225 14.037 20.052 17.404z" fill="#f9ef63"/></g><path d="m481.778 221.658h-249.496c11.255-6.025 19.91-13.668 23.742-22.684 6.163-14.499-2.242-26.338-7.801-32.104-7.238-7.509-16.037-10.727-25.424-9.309-19.076 2.882-37.483 25.014-49.749 43.438v-90.234h-15.454v90.234c-12.267-18.424-30.674-40.557-49.75-43.438-9.396-1.419-18.186 1.801-25.423 9.309-5.559 5.766-13.963 17.604-7.801 32.104 3.832 9.016 12.486 16.66 23.741 22.684h-68.141v15.454h109.705c-17.839 14.094-41.64 38.473-51.675 73.601-1.172 4.104 1.204 8.38 5.307 9.552.709.203 1.424.299 2.127.299 3.363 0 6.456-2.212 7.426-5.607 10.423-36.488 38.601-60.525 54.484-71.617v157.893h15.454v-157.891c15.883 11.092 44.06 35.129 54.483 71.617.97 3.394 4.064 5.607 7.426 5.607.702 0 1.418-.097 2.127-.299 4.103-1.172 6.479-5.449 5.307-9.552-10.036-35.128-33.836-59.508-51.675-73.601h291.059v-15.456zm-392.933-28.729c-1.324-3.114-2.276-8.092 4.704-15.333 3.873-4.018 7.324-4.914 9.971-4.914.737 0 1.411.069 2.014.16 9.343 1.408 21.678 12.207 34.736 30.407 4.536 6.323 8.486 12.603 11.533 17.743-29.614-2.894-57.309-14.769-62.958-28.063zm89.994 28.063c3.018-5.091 6.926-11.305 11.426-17.588 13.097-18.293 25.471-29.146 34.843-30.562.605-.092 1.281-.161 2.018-.161 2.648 0 6.099.898 9.972 4.914 6.98 7.241 6.027 12.219 4.703 15.333-5.65 13.295-33.348 25.17-62.962 28.064z" fill="#f9ef63"/></g></svg>