<?xml version="1.0" encoding="iso-8859-1"?>
<!-- Generator: Adobe Illustrator 21.0.0, SVG Export Plug-In . SVG Version: 6.00 Build 0)  -->
<svg xmlns="http://www.w3.org/2000/svg" xmlns:xlink="http://www.w3.org/1999/xlink" version="1.1" id="Capa_1" x="0px" y="0px" viewBox="0 0 512 512" style="enable-background:new 0 0 512 512;" xml:space="preserve" width="512" height="512">
<g>
	<g>
		<g>
			<g>
				<g>
					<g>
						<g>
							<g>
								<g>
									<g>
										<g>
											<circle style="fill:#495F7A;" cx="256" cy="256" r="256"/>
										</g>
									</g>
								</g>
							</g>
						</g>
					</g>
				</g>
			</g>
		</g>
	</g>
	<path style="fill:#31465B;" d="M511.444,272.685L315.76,77l-4.999,24.558l-37.141-37.141l-3.467,58.232l-35.56-35.56l-3.695,72.717   l-40.35-40.35l-8.866,249.357l135.75,135.75C423.932,478.328,504.187,385.451,511.444,272.685z"/>
	<g>
		<path style="fill:#FFBEAA;" d="M327.366,202.268c-10.989,0.127-19.832,9.072-19.832,20.062l0,59.065    c0,0.023-0.018,0.041-0.04,0.043l-5.763,0.401c-26.606,1.85-47.998,22.247-51.86,47.967l-12.585,0.109    c3.673-30.395,27.347-55.111,57.742-59.86c0.021-0.003,0.036-0.021,0.036-0.042v-48.381c0-0.483,0.013-0.964,0.038-1.441    c0.64-12.134,11.454-26.917,23.605-26.992c0.197-0.001,0.103-81.649,0.04-107.202c-0.021-8.36-6.804-15.117-15.164-15.117h-0.04    c-8.375,0-15.164,6.789-15.164,15.164V199.71h-10.293V75.164c0-8.375-6.789-15.164-15.164-15.164h-1.089    c-8.375,0-15.164,6.789-15.164,15.164V208.42h-10.293V94.226c0-8.375-6.789-15.164-15.164-15.164h-1.089    c-8.375,0-15.164,6.789-15.164,15.164v125.083h-10.293V129.84c0-8.375-6.789-15.164-15.164-15.164    c-8.375,0-15.164,6.789-15.164,15.164v203.169h0.237c1.693,19.157,12.877,35.582,28.819,44.55    c0.013,0.008,0.021,0.021,0.021,0.037c0,0,0.005,68.73,0.013,126.688C213.455,509.315,234.413,512,256,512    c21.633,0,42.635-2.696,62.7-7.747c0.005-55.092,0.008-124.057,0.008-124.057c0-0.017,0.01-0.032,0.024-0.039    c17.028-7.611,28.93-24.699,28.93-44.524V222.33C347.662,211.159,338.537,202.139,327.366,202.268z"/>
	</g>
	<g>
		<path style="fill:#FAA68E;" d="M295.028,270.055c0.021-0.003,0.036-0.021,0.036-0.042v-48.381c0-0.483,0.013-0.964,0.038-1.441    c0.64-12.134,11.454-26.917,23.605-26.992c0.197-0.001,0.103-81.649,0.04-107.202c-0.021-8.36-6.804-15.117-15.164-15.117h-0.04    c-8.375,0-15.164,6.789-15.164,15.164V199.71h-10.293V75.164c0-8.375-6.789-15.164-15.164-15.164h-1.089    c-2.104,0-4.107,0.43-5.928,1.204v229.414C266.108,279.914,279.713,272.448,295.028,270.055z"/>
		<path style="fill:#FAA68E;" d="M327.366,202.268c-10.989,0.127-19.832,9.072-19.832,20.062l0,59.065    c0,0.023-0.018,0.041-0.04,0.043l-5.763,0.401c-19.924,1.385-36.923,13.172-45.827,29.806v200.354    c0.032,0,0.063,0.001,0.095,0.001c21.633,0,42.635-2.696,62.7-7.747c0.005-55.092,0.008-124.057,0.008-124.057    c0-0.017,0.01-0.032,0.024-0.039c17.028-7.611,28.93-24.699,28.93-44.524V222.33C347.662,211.159,338.537,202.139,327.366,202.268    z"/>
	</g>
</g>















</svg>
