<svg id="Flat" height="512" viewBox="0 0 512 512" width="512" xmlns="http://www.w3.org/2000/svg"><path d="m200 128v256h-160v-80a64.41 64.41 0 0 1 2.01-16c5.94-23.04 22.7-42.68 45.99-48l23.1-80 2.27-8.63a32.031 32.031 0 0 1 30.77-23.37z" fill="#eb423f"/><path d="m168 160v80h-80l23.1-80z" fill="#e9eef2"/><path d="m200 272h288v112h-288z" fill="#d13330"/><path d="m168 280h-16a8 8 0 0 1 0-16h16a8 8 0 0 1 0 16z" fill="#d13330"/><path d="m72 288v32h-32v-16a64.41 64.41 0 0 1 2.01-16z" fill="#f7b030"/><path d="m456 320h32v32h-32z" fill="#f7b030"/><path d="m40 352h448a0 0 0 0 1 0 0v32a0 0 0 0 1 0 0h-448a16 16 0 0 1 -16-16 16 16 0 0 1 16-16z" fill="#95573a"/><circle cx="376" cy="368" fill="#4f5659" r="48"/><circle cx="128" cy="368" fill="#4f5659" r="48"/><circle cx="128" cy="368" fill="#6a7073" r="16"/><circle cx="376" cy="368" fill="#6a7073" r="16"/><path d="m200 96h288v176h-288z" fill="#95573a"/><g fill="#b37a60"><path d="m344 232a8 8 0 0 1 -8-8v-80a8 8 0 0 1 16 0v80a8 8 0 0 1 -8 8z"/><path d="m296 232a8 8 0 0 1 -8-8v-80a8 8 0 0 1 16 0v80a8 8 0 0 1 -8 8z"/><path d="m248 232a8 8 0 0 1 -8-8v-80a8 8 0 0 1 16 0v80a8 8 0 0 1 -8 8z"/><path d="m392 232a8 8 0 0 1 -8-8v-80a8 8 0 0 1 16 0v80a8 8 0 0 1 -8 8z"/><path d="m440 232a8 8 0 0 1 -8-8v-80a8 8 0 0 1 16 0v80a8 8 0 0 1 -8 8z"/></g></svg>