<svg height="512" viewBox="0 0 512 512" width="512" xmlns="http://www.w3.org/2000/svg"><g id="flat"><path d="m360 368h-272l-16-32h288z" fill="#cbcbcb"/><path d="m72 128h288v208h-288z" fill="#fbb540"/><path d="m360 216h64l32 56 21.395 5.349a14 14 0 0 1 10.605 13.582v61.069l-16 16h-112z" fill="#fbb540"/><path d="m424 216h-32v56h64z" fill="#cbcbcb"/><g fill="#eaeae8"><path d="m416 216h-24v56h56z"/><circle cx="144" cy="360" r="32"/><circle cx="424" cy="360" r="32"/></g><path d="m144 400a40 40 0 1 1 40-40 40.045 40.045 0 0 1 -40 40zm0-64a24 24 0 1 0 24 24 24.028 24.028 0 0 0 -24-24z" fill="#656666"/><path d="m264 304h-52.681a19.342 19.342 0 0 1 -19.319-19.319v-20.681a8 8 0 0 1 16 0v20.681a3.323 3.323 0 0 0 3.319 3.319h52.681a8 8 0 0 1 0 16z" fill="#cbcbcb"/><path d="m184.006 224a8 8 0 0 1 -7.161-4.424l-13.789-27.576h-19.056a8 8 0 0 1 0-16h24a8 8 0 0 1 7.155 4.422l16 32a8 8 0 0 1 -7.149 11.578z" fill="#cbcbcb"/><circle cx="222" cy="298" fill="#a8a8a8" r="14"/><circle cx="222" cy="298" fill="#cbcbcb" r="6"/><circle cx="266" cy="298" fill="#a8a8a8" r="14"/><circle cx="266" cy="298" fill="#cbcbcb" r="6"/><path d="m224 264h-24l-8-48v-40a16 16 0 0 1 16-16 16 16 0 0 1 16 16z" fill="#8f6934"/><path d="m224 184h40v80h-40z" fill="#0bafea"/><path d="m256 184h8v80h-8z" fill="#0a9acd"/><path d="m216 184h8v80h-8z" fill="#5f4623"/><path d="m219.364 264c-2.133-1.242-3.364 3.075-3.364.606v-51.544c0-1.855.9-2.145 2-.647 6.635 9.089 14-2.752 14 3.585v48c0 5.9-6.4 3.634-12.636 0z" fill="#cbcbcb"/><path d="m256 264c-4.418 0-8 4.418-8 0v-48c0-4.418 3.582 0 8 0s8-4.418 8 0v48c0 4.418-3.582 0-8 0z" fill="#cbcbcb"/><path d="m296 224-16 40h-16v-88l16-8 16 8z" fill="#02a437"/><path d="m448 336h40v16l-16 16h-24z" fill="#cbcbcb"/><path d="m408 312h-16a8 8 0 0 1 0-16h16a8 8 0 0 1 0 16z" fill="#ea9d2d"/><path d="m104 264h-56a8 8 0 0 1 0-16h56a8 8 0 0 1 0 16z" fill="#d18d28"/><path d="m104 232h-80a8 8 0 0 1 0-16h80a8 8 0 0 1 0 16z" fill="#d18d28"/><path d="m96 200h-48a8 8 0 0 1 0-16h48a8 8 0 0 1 0 16z" fill="#d18d28"/><path d="m488 312h-24a8 8 0 0 1 0-16h24z" fill="#fd7422"/><path d="m280 272h-80a8 8 0 0 1 -7.59-5.47l-16-48a8 8 0 0 1 7.59-10.53h112a8 8 0 0 1 7.59 10.53l-16 48a8 8 0 0 1 -7.59 5.47zm-74.234-16h68.468l10.666-32h-89.8z" fill="#cbcbcb"/><path d="m360 216h16v152h-16z" fill="#ea9d2d"/><path d="m424 400a40 40 0 1 1 40-40 40.045 40.045 0 0 1 -40 40zm0-64a24 24 0 1 0 24 24 24.028 24.028 0 0 0 -24-24z" fill="#656666"/></g></svg>