<svg xmlns="http://www.w3.org/2000/svg" width="745" height="117.585" viewBox="0 0 745 117.585">
  <title>Asset 2</title>
  <g id="Layer_2" data-name="Layer 2">
    <g id="Layer_1-2" data-name="Layer 1">
      <g>
        <polygon points="532.876 117 532.876 93.986 523.607 78.43 523.607 28.926 512.917 28.926 512.917 39.146 505.369 43.199 505.369 54.709 501.596 54.709 501.596 90.552 489.647 90.552 489.647 15.72 460.087 15.72 460.087 95.582 456.313 95.582 456.313 42.132 437.446 42.132 437.446 0 428.011 0 428.011 61.628 424.869 63.47 424.869 31.442 400.97 31.442 400.97 76.089 386.504 76.089 386.504 97.468 380.844 97.468 380.844 50.935 368.895 50.935 368.895 67.284 352.543 67.284 352.543 47.791 343.109 47.791 343.109 39.615 338.078 39.615 338.078 28.926 335.561 28.926 335.561 39.615 331.16 39.615 331.16 47.791 322.355 47.791 322.355 90.375 318.052 89.441 318.052 28.926 307.362 28.926 307.362 39.146 299.185 43.199 299.185 54.709 296.041 54.709 296.041 90.552 287.765 90.552 287.765 15.72 257.577 15.72 257.577 95.582 254.432 95.582 254.432 42.132 233.677 42.132 233.677 0 226.13 0 226.13 61.628 222.357 63.47 222.357 31.442 198.458 31.442 198.458 76.089 183.993 76.089 183.993 97.468 178.333 97.468 178.333 50.935 166.383 50.935 166.383 67.284 150.661 67.284 150.661 47.791 140.598 47.791 140.598 39.615 136.195 39.615 136.195 28.926 133.051 28.926 133.051 39.615 128.648 39.615 128.648 47.791 119.215 47.791 119.215 90.375 116.699 88.716 116.699 52.822 112.296 52.822 112.296 99.22 102.863 104.564 102.863 117 532.876 117" fill="#001580" opacity="0.6"/>
        <rect x="87.756" y="107.621" width="3.237" height="9.964" fill="#00857d"/>
        <polygon points="722.417 116.708 691.591 14.068 660.516 116.708 722.417 116.708" fill="#8cc63f" opacity="0.6"/>
        <polygon points="570.219 116.93 587.958 56.303 605.695 116.93 570.219 116.93" fill="#4bb55f"/>
        <polygon points="629.893 116.93 643.19 71.485 656.485 116.93 629.893 116.93" fill="#4bb55f"/>
        <polygon points="592.057 116.93 613.558 45.339 635.058 116.93 592.057 116.93" fill="#d9e021" opacity="0.6"/>
        <polygon points="702.093 116.93 723.546 45.497 745 116.93 702.093 116.93" fill="#00857d" opacity="0.7"/>
        <polygon points="645.869 116.93 662.08 62.947 678.293 116.93 645.869 116.93" fill="#00857d" opacity="0.7"/>
        <g opacity="0.8">
          <ellipse cx="73.159" cy="83.917" rx="20.39" ry="20.386" fill="#8cc63f"/>
          <rect x="70.709" y="101.331" width="5.066" height="15.599" fill="#8cc63f"/>
        </g>
        <circle cx="89.322" cy="95.842" r="13.024" fill="#00857d" opacity="0.8"/>
        <g>
          <g>
            <circle cx="43.306" cy="102.632" r="8.83" fill="#00857d" opacity="0.8"/>
            <rect x="42.175" y="110.175" width="2.193" height="6.755" fill="#00857d"/>
          </g>
          <g opacity="0.8">
            <ellipse cx="27.505" cy="89.147" rx="17.161" ry="17.156" fill="#8cc63f"/>
            <rect x="25.304" y="103.803" width="4.264" height="13.127" fill="#8cc63f"/>
          </g>
          <circle cx="12.419" cy="96.822" r="12.418" fill="#00857d" opacity="0.8"/>
          <rect x="10.827" y="107.429" width="3.085" height="9.501" fill="#00857d"/>
        </g>
        <g>
          <g>
            <circle cx="558.474" cy="102.632" r="8.83" fill="#00857d" opacity="0.8"/>
            <rect x="557.343" y="110.175" width="2.193" height="6.755" fill="#00857d"/>
          </g>
          <g opacity="0.8">
            <ellipse cx="542.673" cy="89.147" rx="17.161" ry="17.156" fill="#8cc63f"/>
            <rect x="540.471" y="103.803" width="4.264" height="13.127" fill="#8cc63f"/>
          </g>
          <circle cx="527.586" cy="96.822" r="12.418" fill="#00857d" opacity="0.8"/>
          <rect x="525.995" y="107.429" width="3.085" height="9.501" fill="#00857d"/>
        </g>
      </g>
    </g>
  </g>
</svg>
